<svg xmlns="http://www.w3.org/2000/svg" viewBox="0 0 1600 950" role="img" aria-label="Mechanical engineering CAD and CNC workspace illustration">
  <defs><linearGradient id="bg" x1="0" y1="0" x2="1" y2="1"><stop offset="0" stop-color="#263230"/><stop offset=".48" stop-color="#151d1c"/><stop offset="1" stop-color="#050706"/></linearGradient><linearGradient id="screen" x1="0" y1="0" x2="1" y2="1"><stop offset="0" stop-color="#d5e8e7"/><stop offset="1" stop-color="#506361"/></linearGradient><filter id="soft"><feGaussianBlur stdDeviation="8"/></filter></defs>
  <rect width="1600" height="950" fill="url(#bg)"/><g opacity=".26" stroke="#8fa6aa" fill="none"><path d="M0 180H1600M0 360H1600M0 540H1600M0 720H1600"/><path d="M180 0V950M360 0V950M540 0V950M720 0V950M900 0V950M1080 0V950M1260 0V950M1440 0V950"/></g>
  <g transform="translate(65 210)"><rect width="610" height="430" rx="20" fill="#050807" opacity=".92"/><rect x="28" y="32" width="554" height="330" rx="10" fill="url(#screen)"/><rect x="235" y="380" width="120" height="34" fill="#111a19"/><rect x="170" y="414" width="250" height="24" rx="12" fill="#0d1413"/><g transform="translate(145 70)"><rect x="70" y="130" width="270" height="95" rx="10" fill="#8fa6aa" opacity=".72"/><rect x="338" y="94" width="44" height="165" rx="8" fill="#cc8a2f" opacity=".9"/><circle cx="185" cy="178" r="88" fill="#2a3836"/><circle cx="185" cy="178" r="52" fill="#617371"/><circle cx="185" cy="178" r="24" fill="#172321"/><g stroke="#12d8d5" stroke-width="5"><path d="M88 104 185 178 345 120"/><path d="M88 255 185 178 365 260"/></g><g stroke="#0b2424" stroke-width="12"><path d="M98 178h174"/><path d="M185 91v174"/></g></g><g stroke="#111a19" opacity=".65"><path d="M60 72H180M60 102H150M60 132H175M60 162H135M60 192H160"/></g></g>
  <g transform="translate(1120 110)"><rect width="300" height="540" rx="18" fill="#0a0e0e" opacity=".88"/><rect x="42" y="46" width="215" height="112" rx="8" fill="#1a2e2d"/><g fill="#12d8d5" opacity=".88"><circle cx="74" cy="220" r="14"/><circle cx="118" cy="220" r="14"/><circle cx="162" cy="220" r="14"/><circle cx="206" cy="220" r="14"/></g><g fill="#8fa6aa"><rect x="55" y="280" width="190" height="20" rx="10"/><rect x="55" y="328" width="190" height="20" rx="10"/><rect x="55" y="376" width="190" height="20" rx="10"/></g><circle cx="150" cy="472" r="42" fill="#8d1d1d"/><circle cx="150" cy="472" r="22" fill="#330b0b"/></g>
  <g transform="translate(795 118)" opacity=".84"><ellipse cx="210" cy="140" rx="78" ry="86" fill="#171311"/><path d="M144 232c40-38 111-39 150 3 49 52 65 151 87 282H38c22-126 57-238 106-285Z" fill="#e8dfd5"/><path d="M224 232c32 64 75 147 96 285h62c-21-131-38-230-87-282-18-19-43-30-71-33Z" fill="#3b2422" opacity=".64"/><path d="M50 520c240-18 455 4 635 72" stroke="#050807" stroke-width="64" opacity=".45" filter="url(#soft)"/></g>
  <g opacity=".34" stroke="#12d8d5" fill="none"><circle cx="270" cy="130" r="82"/><circle cx="270" cy="130" r="52"/><path d="M188 130h164M270 48v164"/><path d="M875 764c80-64 155-93 244-82 84 10 138 55 217 47"/></g>
</svg>